<svg width="60.000000" height="60.000000" viewBox="0 0 60 60" fill="none" xmlns="http://www.w3.org/2000/svg" xmlns:xlink="http://www.w3.org/1999/xlink">
	<desc>
			Created with Pixso.
	</desc>
	<defs>
		<linearGradient x1="44.392391" y1="16.449921" x2="15.166828" y2="47.790485" id="paint_linear_1_880_0" gradientUnits="userSpaceOnUse">
			<stop stop-color="#00B5CB"/>
			<stop offset="1.000000" stop-color="#2370E1"/>
		</linearGradient>
	</defs>
	<rect id="Logo/SmartThings" rx="0.000000" width="59.000000" height="59.000000" transform="translate(0.500000 0.500000)" fill="#FFFFFF" fill-opacity="0"/>
	<path id="path16" d="M53.26 6.73C47.06 1.23 38.85 0 31.2 0L28.77 0C20.84 0 12.58 1.34 6.73 6.73C1.25 12.93 0 21.15 0 28.81L0 31.16C0 39.08 1.34 47.41 6.73 53.26C12.97 58.78 21.23 60 28.92 60L31.05 60C39 60 47.37 58.67 53.26 53.26C58.78 47.02 60 38.74 60 31.05L60 28.92C60 20.97 58.67 12.6 53.26 6.73Z" fill="#FBFCFD" fill-opacity="1.000000" fill-rule="nonzero"/>
	<path id="path32" d="M29.99 35.89C27.25 35.89 25.03 33.71 25.03 31.03C25.03 28.36 27.25 26.18 29.99 26.18C32.73 26.18 34.96 28.36 34.96 31.03C34.96 33.71 32.73 35.89 29.99 35.89ZM26.61 14.27C26.61 12.45 28.13 10.96 29.99 10.96C31.86 10.96 33.38 12.45 33.38 14.27C33.38 16.1 31.86 17.58 29.99 17.58C28.13 17.58 26.61 16.1 26.61 14.27ZM16.91 26.88C16.45 28.24 15.16 29.16 13.69 29.16C13.33 29.16 12.98 29.11 12.64 29C10.86 28.44 9.89 26.57 10.47 24.83C10.92 23.46 12.22 22.54 13.69 22.54C14.04 22.54 14.39 22.6 14.73 22.71C15.59 22.98 16.29 23.56 16.7 24.35C17.11 25.14 17.18 26.04 16.91 26.88ZM37.66 31.03C37.66 27.27 35.04 24.23 31.35 23.7L31.35 19.73C33.92 19.21 35.63 16.94 35.63 14.27C35.63 11.23 33.1 8.76 29.99 8.76C26.88 8.76 24.35 11.23 24.35 14.27C24.35 16.94 26.52 19.21 29.09 19.73L29.09 23.7C26.57 24.06 24.23 25.55 23.13 27.69L19.29 26.47C19.42 25.41 19.22 24.33 18.71 23.35C18.03 22.04 16.86 21.06 15.43 20.61C14.86 20.43 14.28 20.34 13.69 20.34C11.23 20.34 9.08 21.87 8.32 24.15C7.36 27.04 8.98 30.16 11.94 31.1C12.51 31.28 13.1 31.37 13.69 31.37C15.75 31.37 17.61 30.28 18.59 28.57L22.43 29.79C22.36 30.2 22.32 30.61 22.32 31.03C22.32 35.17 25.76 38.54 29.99 38.54C34.22 38.54 37.66 35.17 37.66 31.03ZM49.31 27.36C48.9 28.14 48.2 28.73 47.34 29C47 29.11 46.65 29.16 46.3 29.16C44.83 29.16 43.53 28.24 43.08 26.88C42.5 25.14 43.48 23.27 45.25 22.71C45.59 22.6 45.94 22.54 46.3 22.54C47.77 22.54 49.06 23.46 49.52 24.83C49.8 25.67 49.72 26.57 49.31 27.36ZM51.66 24.15C50.9 21.87 48.75 20.34 46.3 20.34C45.71 20.34 45.12 20.43 44.55 20.61C41.96 21.43 40.39 23.93 40.69 26.48L39.11 26.98L39.81 29.08L41.39 28.57C42.38 30.28 44.23 31.37 46.3 31.37C46.89 31.37 47.47 31.28 48.04 31.1C49.47 30.64 50.64 29.67 51.32 28.36C52.01 27.04 52.13 25.55 51.66 24.15ZM42.06 47.27C41.48 47.68 40.79 47.9 40.07 47.9C38.99 47.9 37.97 47.39 37.33 46.54C36.23 45.06 36.57 42.99 38.08 41.92C38.66 41.5 39.35 41.28 40.07 41.28C41.15 41.28 42.17 41.79 42.81 42.65C43.9 44.13 43.57 46.2 42.06 47.27ZM40.07 39.08C39.25 39.08 38.46 39.25 37.73 39.58L36.75 38.26L34.93 39.56L35.91 40.87C34.13 42.76 33.9 45.68 35.5 47.84C36.56 49.26 38.27 50.11 40.07 50.11C41.27 50.11 42.41 49.75 43.39 49.06C45.9 47.27 46.46 43.81 44.63 41.35C43.58 39.93 41.87 39.08 40.07 39.08ZM22.65 46.54C22.02 47.39 20.99 47.9 19.91 47.9C19.19 47.9 18.51 47.69 17.92 47.27C16.41 46.2 16.08 44.13 17.18 42.65C17.81 41.79 18.84 41.28 19.92 41.28C20.64 41.28 21.32 41.5 21.9 41.92C23.41 42.99 23.75 45.06 22.65 46.54ZM25.05 39.55L23.23 38.26L22.25 39.58C21.52 39.25 20.73 39.08 19.92 39.08C18.12 39.08 16.41 39.93 15.35 41.35C13.52 43.81 14.08 47.27 16.6 49.06C17.57 49.75 18.71 50.11 19.91 50.11C21.71 50.11 23.42 49.26 24.48 47.84C26.08 45.68 25.85 42.76 24.08 40.87L25.05 39.55Z" fill="url(#paint_linear_1_880_0)" fill-opacity="1.000000" fill-rule="nonzero"/>
</svg>
