<svg width="40.000000" height="40.000000" viewBox="0 0 40 40" fill="none" xmlns="http://www.w3.org/2000/svg" xmlns:xlink="http://www.w3.org/1999/xlink">
	<desc>
			Created with Pixso.
	</desc>
	<defs/>
	<rect id="Logo_m" rx="0.000000" width="39.000000" height="39.000000" transform="translate(0.500000 0.500000)" fill="#FFFFFF" fill-opacity="0"/>
	<path id="Vector" d="M40 20C40 31.04 31.04 40 20 40C8.95 40 0 31.04 0 20C0 8.95 8.95 0 20 0C31.04 0 40 8.95 40 20Z" fill="#FFFFFF" fill-opacity="1.000000" fill-rule="nonzero"/>
	<path id="Vector" d="M37.15 20C37.15 29.45 29.48 37.15 20 37.15C10.51 37.15 2.84 29.48 2.84 20C2.84 10.51 10.51 2.84 20 2.84C29.48 2.84 37.15 10.54 37.15 20Z" fill="#ED1D24" fill-opacity="1.000000" fill-rule="nonzero"/>
	<path id="Vector" d="M30.34 26.97C30.34 27.66 29.78 28.23 29.09 28.23C28.39 28.23 27.83 27.66 27.83 26.97C27.83 26.28 28.39 25.71 29.09 25.71C29.81 25.71 30.34 26.28 30.34 26.97Z" fill="#FFFFFF" fill-opacity="1.000000" fill-rule="nonzero"/>
	<path id="Vector" d="M14.87 27.66C13.55 26.28 14.57 23.6 14.81 21.35C14.51 21.65 11.7 28.23 9.12 28.23C9.09 28.23 9.02 28.23 8.99 28.23C6.64 27.99 6.94 24.76 7.66 22.8L11.43 22.8C10.28 26.01 11.86 24.69 12.95 22.67C15.14 18.24 15.17 18.14 17.55 11.47L21.71 11.47C20.49 15.27 19.43 18.67 18.94 22.61C18.94 22.74 19 22.9 19.17 22.84C20.03 22.71 24.69 12.19 25.12 11.47L29.28 11.47C29.28 11.47 24.86 23.7 25.58 24.85C25.95 25.52 26.44 24.26 26.9 23.76L27.57 24.42C26.34 25.78 24.95 28.26 23 28.26C22.84 28.26 22.71 28.23 22.54 28.23C22.24 28.16 21.95 27.99 21.75 27.8C19.5 25.85 23.57 18.57 23.14 18.11C23 18.11 22.87 18.47 22.64 18.97C21.42 21.52 18.57 28.26 16.23 28.26C15.83 28.23 15.27 28.09 14.87 27.66Z" fill="#FFFFFF" fill-opacity="1.000000" fill-rule="nonzero"/>
</svg>
