<svg width="35.000000" height="35.000000" viewBox="0 0 35 35" fill="none" xmlns="http://www.w3.org/2000/svg" xmlns:xlink="http://www.w3.org/1999/xlink">
	<desc>
			Created with Pixso.
	</desc>
	<defs/>
	<rect id="Logo_e" rx="0.000000" width="34.000000" height="34.000000" transform="translate(0.500000 0.500000)" fill="#FFFFFF" fill-opacity="0"/>
	<path id="Rectangle" d="M0 6.56C0 2.93 2.93 0 6.56 0L28.43 0C32.06 0 35 2.93 35 6.56L35 28.43C35 32.06 32.06 35 28.43 35L6.56 35C2.93 35 0 32.06 0 28.43L0 6.56Z" fill="#78BD20" fill-opacity="1.000000" fill-rule="nonzero"/>
	<path id="Vector" d="M28.35 9.37C28.87 6.5 28.07 4.5 24.76 4.5L14.46 4.5L13.5 9.54L22.25 9.54C22.78 9.54 22.94 9.83 22.86 10.45L21.73 16.45L16.28 16.45L17.09 12.29L4.5 18.54L13.86 18.54L13.05 22.7L21.33 18.62L20.24 24.54C20.07 25.12 19.79 25.41 19.15 25.41L10.47 25.41L9.54 30.5L19.87 30.5C23.14 30.5 24.76 28.5 25.24 25.62L28.35 9.37Z" fill="#000000" fill-opacity="1.000000" fill-rule="nonzero"/>
</svg>
