<svg width="60.000000" height="60.000000" viewBox="0 0 60 60" fill="none" xmlns="http://www.w3.org/2000/svg" xmlns:xlink="http://www.w3.org/1999/xlink">
	<desc>
			Created with Pixso.
	</desc>
	<defs>
		<clipPath id="clip1_661">
			<rect id="Icons/color/качество_съемки" rx="0.000000" width="59.000000" height="59.000000" transform="translate(0.500000 0.500000)" fill="white" fill-opacity="0"/>
		</clipPath>
	</defs>
	<g clip-path="url(#clip1_661)">
		<path id="Polygon" d="M25 38.88L23 40L23 20L41 30L38.94 31.14L25 38.88ZM25 36.6L36.88 30L25 23.39L25 36.6Z" fill="#319559" fill-opacity="1.000000" fill-rule="evenodd"/>
		<path id="Subtract" d="M34.2699 7.39563C32.8862 7.13586 31.459 7 30 7C25.1907 7 20.7261 8.47607 17.0347 11L36.3508 11L34.2699 7.39563ZM12.5638 15C9.09631 19.0271 7 24.2688 7 30C7 30.5809 7.02148 31.1567 7.06384 31.7268L13.3586 20.8241C13.4736 20.6158 13.5924 20.41 13.715 20.2068L16.7211 15L12.5638 15ZM8.28772 37.6071C10.3107 43.3813 14.572 48.1036 20.0312 50.7333L13.7159 39.7948C13.5928 39.5905 13.4733 39.3837 13.3578 39.1744L10.3702 34L8.28772 37.6071ZM25.7303 52.6044C27.1139 52.8641 28.5411 53 30 53C34.8093 53 39.2739 51.5239 42.9655 49L23.6493 49L25.7303 52.6044ZM47.4362 45C50.9037 40.9729 53 35.7312 53 30C53 29.4193 52.9785 28.8435 52.9362 28.2737L46.6318 39.193C46.5229 39.3896 46.4106 39.5842 46.295 39.7765L43.2792 45L47.4362 45ZM51.7124 22.3933C49.6895 16.6189 45.4282 11.8966 39.9691 9.26685L46.291 20.2169C46.4094 20.4136 46.5243 20.6124 46.6356 20.8136L49.63 26.0001L51.7124 22.3933Z" clip-rule="evenodd" fill="#7981FB" fill-opacity="1.000000" fill-rule="evenodd"/>
	</g>
</svg>
