<svg width="60.000000" height="60.000000" viewBox="0 0 60 60" fill="none" xmlns="http://www.w3.org/2000/svg" xmlns:xlink="http://www.w3.org/1999/xlink">
	<desc>
			Created with Pixso.
	</desc>
	<defs>
		<clipPath id="clip1_686">
			<rect id="Icons/color/стабилизация" rx="0.000000" width="59.000000" height="59.000000" transform="translate(0.500000 0.500000)" fill="white" fill-opacity="0"/>
		</clipPath>
	</defs>
	<g clip-path="url(#clip1_686)">
		<path id="Union" d="M57 18C57 13.86 55.32 10.11 52.61 7.4Q52.61 7.39 52.6 7.39Q52.59 7.38 52.59 7.37C49.88 4.67 46.14 3 42.02 3L42 3L42 1C42.67 1 43.34 1.03 44 1.11C47.89 1.57 51.38 3.34 54.02 5.97C56.65 8.61 58.42 12.1 58.88 16C58.96 16.65 59 17.32 59 18L57 18ZM53 18L55 18C55 17.31 54.94 16.65 54.84 16C54.41 13.21 53.1 10.72 51.19 8.81C51.19 8.81 51.19 8.8 51.19 8.8Q51.18 8.8 51.18 8.8C49.27 6.89 46.78 5.58 44 5.15C43.34 5.05 42.68 5 42 5L42 7L42.02 7C45.05 7 47.78 8.23 49.77 10.21Q49.77 10.21 49.77 10.22Q49.78 10.22 49.78 10.22C51.77 12.21 53 14.96 53 18ZM44 9.22C43.35 9.07 42.68 9 42 9L42 11C43.92 11 45.67 11.77 46.93 13.03Q46.94 13.04 46.94 13.05Q46.95 13.05 46.96 13.06C48.22 14.32 49 16.07 49 18L51 18C51 17.31 50.92 16.64 50.77 16C50.39 14.31 49.54 12.81 48.36 11.63C47.18 10.45 45.68 9.6 44 9.22ZM8.8 51.19Q8.8 51.18 8.8 51.18C6.89 49.27 5.58 46.78 5.15 44C5.05 43.34 5 42.68 5 42L7 42C7 45.03 8.22 47.78 10.21 49.77Q10.21 49.77 10.22 49.77Q10.22 49.78 10.22 49.78C12.21 51.77 14.96 53 18 53L18 55C17.31 55 16.65 54.94 16 54.84C13.21 54.41 10.72 53.1 8.81 51.19C8.81 51.19 8.8 51.19 8.8 51.19ZM11.63 48.36Q11.63 48.36 11.63 48.35C10.45 47.18 9.6 45.68 9.22 44C9.07 43.35 9 42.68 9 42L11 42C11 43.92 11.77 45.67 13.03 46.93Q13.04 46.94 13.05 46.94Q13.05 46.95 13.06 46.96C14.32 48.22 16.07 49 18 49L18 51C17.31 51 16.64 50.92 16 50.77C14.31 50.39 12.81 49.54 11.64 48.36C11.63 48.36 11.63 48.36 11.63 48.36ZM3 42C3 46.13 4.67 49.88 7.38 52.59C7.38 52.59 7.38 52.6 7.39 52.6Q7.39 52.61 7.4 52.61C10.11 55.32 13.86 57 18 57L18 59C17.32 59 16.65 58.96 16 58.88C12.1 58.42 8.61 56.65 5.97 54.02C3.34 51.38 1.57 47.89 1.11 44C1.03 43.34 1 42.67 1 42L3 42Z" fill="#5FBAFF" fill-opacity="1.000000" fill-rule="evenodd"/>
		<path id="Rectangle" d="M20 15C17.23 15 15 17.23 15 20L15 40C15 42.76 17.23 45 20 45L40 45C42.76 45 45 42.76 45 40L45 20C45 17.23 42.76 15 40 15L20 15ZM20 17L40 17Q41.5 17 42.25 17.75Q43 18.5 43 20L43 40Q43 41.5 42.25 42.25Q41.5 43 40 43L20 43Q19.37 43 18.84 42.78Q18.31 42.56 17.87 42.12Q17.43 41.68 17.21 41.15Q17 40.62 17 40L17 20Q17 18.5 17.75 17.75Q18.5 17 20 17Z" fill="#E83D43" fill-opacity="1.000000" fill-rule="evenodd"/>
		<circle id="Ellipse" cx="30.000000" cy="30.000000" r="5.000000" stroke="#E83D43" stroke-opacity="1.000000" stroke-width="2.000000"/>
		<circle id="Ellipse" cx="37.500000" cy="22.500000" r="1.500000" fill="#E83D43" fill-opacity="1.000000"/>
	</g>
</svg>
